<svg xmlns="http://www.w3.org/2000/svg" xmlns:xlink="http://www.w3.org/1999/xlink"><symbol id="advantages-icon-allinclusive" viewBox="0 0 38 21">
<path d="M28.7534 2.21506L26.4398 0L16.0732 9.93254L18.3868 12.1476L28.7534 2.21506ZM35.6945 0L18.3787 16.5699L11.5602 10.0421L9.24656 12.2572L18.3787 21L38 2.21506L35.6945 0ZM0 12.2572L9.1321 21L11.4458 18.7849L2.31368 10.0421L0 12.2572Z" fill="#011C40"/>
</symbol><symbol id="advantages-icon-boat" viewBox="0 0 42 15">
<path d="M39.555 12.056L1.57287 8.06841C1.28101 8.03777 1.0843 8.33255 1.23548 8.56735C3.66312 12.3403 9.41009 15 16.1 15H38.7584C38.9124 15 39.0475 14.9068 39.093 14.7698L39.8504 12.476C39.9148 12.281 39.7727 12.0788 39.555 12.056Z" fill="#011C40"/>
<path d="M41.8896 5.51766C41.7782 5.35594 41.597 5.24833 41.3933 5.22287L30.8932 3.91844C30.5145 3.87213 30.1582 4.1219 30.1065 4.47868C30.0547 4.83545 30.3248 5.16418 30.7078 5.21172L31.8964 5.35915C32.07 5.3807 32.2002 5.51897 32.2002 5.68199V6.69033C32.2002 6.884 32.0195 7.03534 31.8131 7.01447L29.0131 6.73466C28.8353 6.71769 28.7002 6.57744 28.7002 6.41113V3.55647C28.7002 3.49189 28.7205 3.42929 28.759 3.37579L29.9826 1.66575C30.1226 1.47009 30.1387 1.21962 30.0253 1.01028C29.9112 0.800253 29.6852 0.66329 29.4332 0.652208L14.7331 3.06688e-05C14.4972 -0.00195651 14.2683 0.0926639 14.1304 0.272657C14.1304 0.272657 11.3332 3.93541 10.72 4.74152C10.6465 4.83805 10.5233 4.88956 10.3973 4.87649L0.774214 3.91653C0.575451 3.89697 0.379396 3.95635 0.231739 4.07956C0.0847386 4.20353 0 4.37962 0 4.56481C0 5.19291 0.0875276 5.80856 0.252739 6.40601C0.289161 6.53778 0.412372 6.63362 0.55724 6.64929L40.1052 10.8012C40.2725 10.8188 40.4293 10.7229 40.479 10.5729L41.9694 6.06093C42.0295 5.87773 42.0001 5.67878 41.8896 5.51766ZM20.2007 1.90513L19.6547 5.46745C19.6281 5.64026 19.4635 5.76354 19.2767 5.74596C17.911 5.61748 12.7799 5.11465 12.7799 5.11465C12.5139 5.0879 12.3768 4.80419 12.5321 4.60073L14.9366 1.46428C15.0059 1.37424 15.1193 1.32273 15.2383 1.328L19.871 1.53345C20.0768 1.54254 20.23 1.71466 20.2007 1.90513ZM27.7894 2.3806L27.3589 2.98065C27.3204 3.03415 27.3001 3.09736 27.3001 3.16194V6.20187C27.3001 6.39554 27.1195 6.54687 26.913 6.52601L21.3577 5.97166C21.161 5.95209 21.0203 5.78379 21.0483 5.6012L21.6146 1.9078C21.6398 1.74149 21.7973 1.62019 21.9779 1.62799L27.5149 1.87386C27.7866 1.88556 27.9406 2.16927 27.7894 2.3806ZM36.4001 7.1097C36.4001 7.30337 36.2195 7.45471 36.013 7.43384C36.013 7.43384 34.5598 7.28121 33.9088 7.20952C33.7324 7.19064 33.6001 7.051 33.6001 6.88599V5.94292C33.6001 5.74596 33.7863 5.59333 33.9963 5.61939L36.0963 5.88025C36.2699 5.90241 36.4001 6.04068 36.4001 6.20378V7.1097ZM40.2662 6.78228L40.0065 7.56752C39.9576 7.71625 39.8014 7.81209 39.6348 7.79581L38.1123 7.64387C37.9352 7.62629 37.8001 7.48604 37.8001 7.31973V6.46532C37.8001 6.26836 37.9863 6.11573 38.1963 6.14179L39.9778 6.3629C40.192 6.38966 40.3299 6.58929 40.2662 6.78228Z" fill="#011C40"/>
</symbol><symbol id="advantages-icon-ship" viewBox="0 0 27 32">
<path d="M4.40549 16.3962L13.2165 9.93576C13.4162 9.8063 13.6711 9.8063 13.8708 9.93576L22.7254 16.3962V8.68818C22.7739 7.6312 21.9743 6.7343 20.9396 6.68484C20.9242 6.68407 20.9089 6.68356 20.8934 6.68322H6.23749C5.20189 6.70667 4.38094 7.58319 4.4039 8.6411C4.40423 8.6568 4.40473 8.67249 4.40549 8.68818V16.3962Z" fill="#011C40"/>
<path d="M15.7464 0H11.3845V5.34662H15.7464V0Z" fill="#011C40"/>
<path d="M24.2956 30.1638L27 21.03L23.2052 18.3122L22.9434 18.1785L14.0016 11.8072V30.6094H13.5217L12.6929 30.5649V11.8072L0 21.03L2.79163 30.1193L4.4039 31.9904C4.4039 31.9904 5.7624 31.9904 7.15817 31.9904C7.15817 31.9904 12.2467 31.997 13.5218 31.9904C14.8198 32.012 17.1251 31.9904 17.1251 31.9904H22.8127L24.2956 30.1638Z" fill="#011C40"/>
</symbol><symbol id="icon-facebook" viewBox="0 0 11 20">
<path d="M7.31035 11.5H9.92118L10.9655 7.5H7.31035V5.5C7.31035 4.47 7.31035 3.5 9.39902 3.5H10.9655V0.14C10.6251 0.0970001 9.33949 0 7.98185 0C5.14648 0 3.13301 1.657 3.13301 4.7V7.5H0V11.5H3.13301V20H7.31035V11.5Z"/>
</symbol><symbol id="icon-instagram" viewBox="0 0 20 20">
<path d="M9.74713 0C12.3954 0 12.7258 0.00999994 13.7649 0.0599999C14.803 0.11 15.5096 0.277 16.1315 0.525C16.7748 0.779 17.3167 1.123 17.8587 1.678C18.3543 2.1779 18.7378 2.78259 18.9825 3.45C19.2233 4.087 19.387 4.813 19.4358 5.878C19.4816 6.944 19.4943 7.283 19.4943 10C19.4943 12.717 19.4845 13.056 19.4358 14.122C19.387 15.187 19.2233 15.912 18.9825 16.55C18.7385 17.2178 18.3549 17.8226 17.8587 18.322C17.3713 18.8303 16.7819 19.2238 16.1315 19.475C15.5106 19.722 14.803 19.89 13.7649 19.94C12.7258 19.987 12.3954 20 9.74713 20C7.09883 20 6.7684 19.99 5.72936 19.94C4.69129 19.89 3.98462 19.722 3.36276 19.475C2.71197 19.2245 2.12246 18.8309 1.63557 18.322C1.13984 17.8222 0.75631 17.2175 0.511724 16.55C0.269995 15.913 0.107218 15.187 0.0584827 14.122C0.0126712 13.056 0 12.717 0 10C0 7.283 0.00974707 6.944 0.0584827 5.878C0.107218 4.812 0.269995 4.088 0.511724 3.45C0.755632 2.78218 1.13925 2.17732 1.63557 1.678C2.1226 1.16923 2.71207 0.775729 3.36276 0.525C3.98462 0.277 4.69032 0.11 5.72936 0.0599999C6.7684 0.0129999 7.09883 0 9.74713 0ZM9.74713 5C8.45458 5 7.21497 5.52678 6.301 6.46447C5.38703 7.40215 4.87356 8.67392 4.87356 10C4.87356 11.3261 5.38703 12.5979 6.301 13.5355C7.21497 14.4732 8.45458 15 9.74713 15C11.0397 15 12.2793 14.4732 13.1933 13.5355C14.1072 12.5979 14.6207 11.3261 14.6207 10C14.6207 8.67392 14.1072 7.40215 13.1933 6.46447C12.2793 5.52678 11.0397 5 9.74713 5ZM16.0828 4.75C16.0828 4.41848 15.9544 4.10054 15.7259 3.86612C15.4974 3.6317 15.1875 3.5 14.8644 3.5C14.5412 3.5 14.2313 3.6317 14.0028 3.86612C13.7743 4.10054 13.646 4.41848 13.646 4.75C13.646 5.08152 13.7743 5.39946 14.0028 5.63388C14.2313 5.8683 14.5412 6 14.8644 6C15.1875 6 15.4974 5.8683 15.7259 5.63388C15.9544 5.39946 16.0828 5.08152 16.0828 4.75ZM9.74713 7C10.5227 7 11.2664 7.31607 11.8148 7.87868C12.3632 8.44129 12.6713 9.20435 12.6713 10C12.6713 10.7956 12.3632 11.5587 11.8148 12.1213C11.2664 12.6839 10.5227 13 9.74713 13C8.9716 13 8.22783 12.6839 7.67945 12.1213C7.13107 11.5587 6.82299 10.7956 6.82299 10C6.82299 9.20435 7.13107 8.44129 7.67945 7.87868C8.22783 7.31607 8.9716 7 9.74713 7Z"/>
</symbol><symbol id="icon-marker" viewBox="0 0 18 22">
<path d="M15.364 15.5563L9 22L2.636 15.5563C1.37734 14.2819 0.520187 12.6581 0.172928 10.8905C-0.17433 9.12277 0.00390685 7.29051 0.685099 5.62539C1.36629 3.96027 2.51984 2.53707 3.99988 1.53576C5.47992 0.534448 7.21998 0 9 0C10.78 0 12.5201 0.534448 14.0001 1.53576C15.4802 2.53707 16.6337 3.96027 17.3149 5.62539C17.9961 7.29051 18.1743 9.12277 17.8271 10.8905C17.4798 12.6581 16.6227 14.2819 15.364 15.5563ZM9 11.1377C9.53044 11.1377 10.0391 10.9243 10.4142 10.5445C10.7893 10.1648 11 9.64969 11 9.11262C11 8.57554 10.7893 8.06047 10.4142 7.6807C10.0391 7.30093 9.53044 7.08757 9 7.08757C8.46957 7.08757 7.96086 7.30093 7.58579 7.6807C7.21072 8.06047 7 8.57554 7 9.11262C7 9.64969 7.21072 10.1648 7.58579 10.5445C7.96086 10.9243 8.46957 11.1377 9 11.1377Z" fill="#011C40"/>
</symbol><symbol id="icon-phone" viewBox="0 0 18 18">
<path d="M18 13.42V16.956C18.0001 17.2092 17.9042 17.453 17.7316 17.6382C17.559 17.8234 17.3226 17.9363 17.07 17.954C16.633 17.984 16.276 18 16 18C7.163 18 0 10.837 0 2C0 1.724 0.015 1.367 0.046 0.93C0.0637224 0.677444 0.176581 0.441011 0.361804 0.268409C0.547026 0.0958068 0.790823 -0.000114433 1.044 2.56579e-07H4.58C4.70404 -0.000125334 4.8237 0.045859 4.91573 0.12902C5.00776 0.212182 5.0656 0.326583 5.078 0.45C5.101 0.68 5.122 0.863 5.142 1.002C5.34073 2.38892 5.748 3.73783 6.35 5.003C6.445 5.203 6.383 5.442 6.203 5.57L4.045 7.112C5.36445 10.1865 7.81455 12.6365 10.889 13.956L12.429 11.802C12.4919 11.714 12.5838 11.6509 12.6885 11.6237C12.7932 11.5964 12.9042 11.6068 13.002 11.653C14.267 12.2539 15.6156 12.6601 17.002 12.858C17.141 12.878 17.324 12.9 17.552 12.922C17.6752 12.9346 17.7894 12.9926 17.8724 13.0846C17.9553 13.1766 18.0012 13.2961 18.001 13.42H18Z" fill="#011C40"/>
</symbol><symbol id="icon-twitter" viewBox="0 0 20 17">
<path d="M19.999 2.42905C19.2689 2.76016 18.4947 2.97761 17.7019 3.07421C18.5375 2.56184 19.1629 1.75547 19.4616 0.805372C18.6774 1.28385 17.8176 1.61917 16.9215 1.80056C16.3196 1.14028 15.5217 0.702385 14.652 0.554941C13.7823 0.407498 12.8895 0.558771 12.1123 0.985244C11.3351 1.41172 10.7171 2.0895 10.3543 2.91321C9.99163 3.73692 9.90451 4.66042 10.1065 5.54013C8.51623 5.45841 6.96046 5.03471 5.54024 4.29654C4.12002 3.55838 2.86709 2.52225 1.8628 1.25541C1.50731 1.8814 1.32051 2.59302 1.3215 3.31737C1.3215 4.73907 2.02729 5.99507 3.10032 6.73043C2.46531 6.70994 1.84428 6.53412 1.28899 6.21764V6.26863C1.28918 7.21548 1.60876 8.13313 2.19355 8.86599C2.77834 9.59884 3.59234 10.1018 4.49754 10.2896C3.90806 10.4534 3.28997 10.4775 2.69004 10.3602C2.94526 11.1752 3.4427 11.888 4.1127 12.3987C4.78271 12.9095 5.59173 13.1926 6.4265 13.2085C5.59685 13.8765 4.6469 14.3703 3.63098 14.6617C2.61505 14.9531 1.55306 15.0364 0.505737 14.9067C2.33399 16.1121 4.46225 16.7521 6.63594 16.75C13.9931 16.75 18.0165 10.5014 18.0165 5.08224C18.0165 4.90575 18.0117 4.72731 18.0041 4.55278C18.7872 3.9725 19.4631 3.25366 20 2.43003L19.999 2.42905Z"/>
</symbol><symbol id="logo" viewBox="0 0 70 38">
<path fill-rule="evenodd" clip-rule="evenodd" d="M0.903517 31.125L14.6726 12.5429L18.4395 14.556L27.4026 0L32.9879 6.65881L35.0665 4.95532L43.1199 15.1755L48.8355 8.36191L64.8126 31.125L49.42 11.7689L47.0817 19.8984L49.225 26.3249L35.456 7.35558L35.3069 13.8279L43.1199 31.125L28.5064 4.33574L32.7282 18.8145L26.8181 4.72292L23.5706 14.0916L24.2198 7.97472L16.1013 30.0411L17.0753 20.75L13.6981 17.0338L0.903517 31.125Z"/>
<path fill-rule="evenodd" clip-rule="evenodd" d="M69.4414 34.0314C47.641 16.428 13.7091 40.6289 0 31.2961C15.0723 44.5215 50.3019 22.1644 69.4414 34.0314Z"/>
<path fill-rule="evenodd" clip-rule="evenodd" d="M70 35.4157C52.8956 24.5171 27.4568 39.6838 14.4189 36.1717C28.5467 43.0283 54.8482 27.8361 70 35.4157Z"/>
</symbol><symbol id="menu-icon-burger" viewBox="0 0 24 14">
<path d="M0 1H24M0 7H24M0 13H24" stroke-width="2"/>
</symbol><symbol id="menu-icon-cross" viewBox="0 0 15 15">
<path d="M1 1L7.5 7.5M14 14L7.5 7.5M7.5 7.5L14 1L1 14" stroke-width="2"/>
</symbol></svg>