<svg width="20" height="20" viewBox="0 0 20 20" fill="none" xmlns="http://www.w3.org/2000/svg">
<path d="M9.74713 0C12.3954 0 12.7258 0.00999994 13.7649 0.0599999C14.803 0.11 15.5096 0.277 16.1315 0.525C16.7748 0.779 17.3167 1.123 17.8587 1.678C18.3543 2.1779 18.7378 2.78259 18.9825 3.45C19.2233 4.087 19.387 4.813 19.4358 5.878C19.4816 6.944 19.4943 7.283 19.4943 10C19.4943 12.717 19.4845 13.056 19.4358 14.122C19.387 15.187 19.2233 15.912 18.9825 16.55C18.7385 17.2178 18.3549 17.8226 17.8587 18.322C17.3713 18.8303 16.7819 19.2238 16.1315 19.475C15.5106 19.722 14.803 19.89 13.7649 19.94C12.7258 19.987 12.3954 20 9.74713 20C7.09883 20 6.7684 19.99 5.72936 19.94C4.69129 19.89 3.98462 19.722 3.36276 19.475C2.71197 19.2245 2.12246 18.8309 1.63557 18.322C1.13984 17.8222 0.75631 17.2175 0.511724 16.55C0.269995 15.913 0.107218 15.187 0.0584827 14.122C0.0126712 13.056 0 12.717 0 10C0 7.283 0.00974707 6.944 0.0584827 5.878C0.107218 4.812 0.269995 4.088 0.511724 3.45C0.755632 2.78218 1.13925 2.17732 1.63557 1.678C2.1226 1.16923 2.71207 0.775729 3.36276 0.525C3.98462 0.277 4.69032 0.11 5.72936 0.0599999C6.7684 0.0129999 7.09883 0 9.74713 0ZM9.74713 5C8.45458 5 7.21497 5.52678 6.301 6.46447C5.38703 7.40215 4.87356 8.67392 4.87356 10C4.87356 11.3261 5.38703 12.5979 6.301 13.5355C7.21497 14.4732 8.45458 15 9.74713 15C11.0397 15 12.2793 14.4732 13.1933 13.5355C14.1072 12.5979 14.6207 11.3261 14.6207 10C14.6207 8.67392 14.1072 7.40215 13.1933 6.46447C12.2793 5.52678 11.0397 5 9.74713 5ZM16.0828 4.75C16.0828 4.41848 15.9544 4.10054 15.7259 3.86612C15.4974 3.6317 15.1875 3.5 14.8644 3.5C14.5412 3.5 14.2313 3.6317 14.0028 3.86612C13.7743 4.10054 13.646 4.41848 13.646 4.75C13.646 5.08152 13.7743 5.39946 14.0028 5.63388C14.2313 5.8683 14.5412 6 14.8644 6C15.1875 6 15.4974 5.8683 15.7259 5.63388C15.9544 5.39946 16.0828 5.08152 16.0828 4.75ZM9.74713 7C10.5227 7 11.2664 7.31607 11.8148 7.87868C12.3632 8.44129 12.6713 9.20435 12.6713 10C12.6713 10.7956 12.3632 11.5587 11.8148 12.1213C11.2664 12.6839 10.5227 13 9.74713 13C8.9716 13 8.22783 12.6839 7.67945 12.1213C7.13107 11.5587 6.82299 10.7956 6.82299 10C6.82299 9.20435 7.13107 8.44129 7.67945 7.87868C8.22783 7.31607 8.9716 7 9.74713 7Z"/>
</svg>
